<svg width="36" height="36" viewBox="0 0 36 36" fill="none" xmlns="http://www.w3.org/2000/svg">
<path d="M17.9326 20.2242L25.7372 19.6053C26.6259 19.5279 27.2827 18.7543 27.2827 17.8647C27.2827 16.975 26.6259 16.2401 25.7372 16.124L17.9326 15.5052V20.2242Z" fill="black"/>
<path d="M17.1986 23.2799L24.0758 22.7383C24.8485 22.661 25.4281 22.0034 25.4281 21.2298C25.4281 20.4562 24.8485 19.7986 24.0758 19.7213L17.1986 19.1797V23.2799Z" fill="black"/>
<path d="M35.2418 1H1.24176V17.3618H35.2418V1Z" fill="#A0BFF9"/>
<path d="M30.9145 15.1957H5.56899C5.56899 13.9967 4.60309 13.0296 3.40536 13.0296V5.33227C4.60309 5.33227 5.56899 4.36526 5.56899 3.16617H30.9145C30.9145 4.36526 31.8804 5.33227 33.0781 5.33227V13.0296C31.8804 13.0296 30.9145 13.9967 30.9145 15.1957Z" fill="white"/>
<path d="M18.2417 16.2014C22.1253 16.2014 25.2735 13.0496 25.2735 9.16158C25.2735 5.2736 22.1253 2.12177 18.2417 2.12177C14.3582 2.12177 11.2099 5.2736 11.2099 9.16158C11.2099 13.0496 14.3582 16.2014 18.2417 16.2014Z" fill="#A0BFF9"/>
<path d="M7.69399 10.5154C8.44082 10.5154 9.04625 9.9093 9.04625 9.16161C9.04625 8.41392 8.44082 7.8078 7.69399 7.8078C6.94715 7.8078 6.34172 8.41392 6.34172 9.16161C6.34172 9.9093 6.94715 10.5154 7.69399 10.5154Z" fill="#A0BFF9"/>
<path d="M28.7508 10.5154C29.4977 10.5154 30.1031 9.9093 30.1031 9.16161C30.1031 8.41392 29.4977 7.8078 28.7508 7.8078C28.004 7.8078 27.3985 8.41392 27.3985 9.16161C27.3985 9.9093 28.004 10.5154 28.7508 10.5154Z" fill="#A0BFF9"/>
<path d="M7.7327 17.3618L6.53493 19.3345C5.99402 20.2242 5.87815 21.3072 6.18724 22.3129L8.81449 29.3914C9.08495 30.0876 8.89178 30.8999 8.35087 31.4414L4.7963 35H17.2372L18.8986 33.3368C22.4531 29.7782 23.3032 24.363 21.0623 19.876C20.8304 19.2958 20.2122 18.0967 20.2122 17.4779L19.9804 13.1457L16.3872 17.3231H7.7327V17.3618Z" fill="#276EF1"/>
<path d="M15.8464 17.3618L15.4213 20.5335L13.644 18.4835C13.2576 18.058 13.5668 17.3618 14.1463 17.3618H15.8464Z" fill="black"/>
<path d="M19.9803 11.4049L20.9849 26.3742L15.0736 23.2798L15.769 11.4049C15.8463 10.2832 16.7349 9.43222 17.8554 9.43222C18.9758 9.43222 19.9031 10.2832 19.9803 11.4049Z" fill="#276EF1"/>
</svg>
